<?xml version="1.0" encoding="utf-8"?>
<!-- Generator: Adobe Illustrator 27.0.1, SVG Export Plug-In . SVG Version: 6.00 Build 0)  -->
<svg version="1.1" id="Calque_1" xmlns="http://www.w3.org/2000/svg" xmlns:xlink="http://www.w3.org/1999/xlink" x="0px" y="0px"
	 viewBox="0 0 843.36 882.85" style="enable-background:new 0 0 843.36 882.85;" xml:space="preserve" fill="#001880">
<style type="text/css">

</style>
<g>
	<g>
		<path class="st0" d="M393.51,36.65c4.99,0,9.99,0,14.98,0c0.34,0.3,0.65,0.83,1.01,0.86c8.57,0.76,15.99,4.42,22.62,9.57
			c5.37,4.18,10.51,8.71,15.34,13.51c33.3,33.06,66.5,66.24,99.73,99.38c1.17,1.17,2.35,2.32,4.13,4.06
			c0-9.69-0.04-18.17,0.01-26.66c0.17-28.86,22.01-50.64,50.94-50.77c15.98-0.07,31.95-0.13,47.93,0.06c4.45,0.05,9.01,0.5,13.3,1.6
			c22.62,5.83,37.58,25.36,37.61,49.12c0.07,57.25,0.06,114.5-0.06,171.75c-0.01,3.47,1.05,5.8,3.46,8.19
			c22.57,22.38,45.09,44.82,67.46,67.39c6.2,6.25,12.06,12.87,17.73,19.61c5.08,6.04,8.4,13.1,10.22,20.83c0.24,1.03,0.71,2,1.08,3
			c0,5.66,0,11.32,0,16.98c-0.37,0.65-0.93,1.27-1.09,1.97c-5.33,23.86-25.73,39.67-51.44,39.04c-14.3-0.35-28.62-0.07-42.94-0.05
			c-1.43,0-2.85,0.15-4.41,0.23c0,2.21,0,4.03,0,5.85c0,97.19,0.02,194.39-0.01,291.58c-0.01,30.21-21.65,51.86-51.84,51.88
			c-47.77,0.03-95.53,0.01-143.3,0.01c-1.44,0-2.88,0-4.6,0c0-2.29,0-4.09,0-5.89c0-80.72,0.03-161.44-0.02-242.15
			c-0.02-29.88-21.75-51.52-51.65-51.57c-32.12-0.05-64.24-0.14-96.36,0.11c-5.89,0.05-12.01,0.89-17.59,2.71
			c-21.1,6.86-34.11,25.71-34.12,48.7c-0.03,80.88-0.01,161.77-0.01,242.65c0,1.76,0,3.52,0,5.17c-0.92,0.16-1.24,0.26-1.56,0.26
			c-49.76,0-99.52,0.07-149.29-0.11c-4.89-0.02-9.95-1.06-14.63-2.58c-21.05-6.86-34.26-25.73-34.27-48.62
			c-0.03-97.53-0.01-195.06-0.01-292.58c0-1.78,0-3.55,0-5.64c-2.1,0-3.72,0-5.35,0c-15.31-0.01-30.63,0.2-45.93-0.09
			c-13.9-0.27-25.94-5.38-35.44-15.69c-16.47-17.87-17.82-44.62-2.8-64.59c5.87-7.81,12.7-14.97,19.63-21.9
			c99.64-99.71,199.36-199.35,299.1-298.96c11.3-11.29,22.76-22.42,34.36-33.4c6.84-6.48,14.9-11.08,24.12-13.47
			C390.89,37.62,392.19,37.1,393.51,36.65z"/>
	</g>
</g>
</svg>
