<?xml version="1.0" encoding="utf-8"?>
<!-- Generator: Adobe Illustrator 27.0.1, SVG Export Plug-In . SVG Version: 6.00 Build 0)  -->
<svg version="1.1" id="Calque_1" xmlns="http://www.w3.org/2000/svg" xmlns:xlink="http://www.w3.org/1999/xlink" x="0px" y="0px"
	 viewBox="0 0 498.16 498.16" style="enable-background:new 0 0 498.16 498.16;" xml:space="preserve" fill="#0e158a">
<g>
	<path d="M498.16,370.7c-2.91,4.75-7.13,6.15-12.64,6.11c-30.56-0.2-61.12-0.1-91.68-0.1c-1.6,0-3.2,0-5.85,0
		c2.87-39.89-6.22-76.03-33.2-106.51c17.38-12.11,36.07-17.63,56.58-17.16c39.75,0.91,74.67,28.84,84.3,67.46
		c0.93,3.74,1.67,7.52,2.5,11.28C498.16,344.76,498.16,357.73,498.16,370.7z"/>
	<path d="M251.58,405.73c-36.89,0-73.79,0.01-110.68,0c-9.58,0-13.42-3.63-13.27-13.13c0.26-17.01-0.96-34.26,1.5-50.96
		c7.05-48,34.78-80.37,79.66-97.42c63.59-24.17,136.2,9.2,159.62,72.6c4.82,13.05,7.19,26.55,7.3,40.44c0.1,12,0.06,24,0.02,35.99
		c-0.03,8.54-3.96,12.48-12.48,12.49C326.02,405.74,288.8,405.73,251.58,405.73z"/>
	<path d="M141.03,274.29c-26.56,31.63-32.74,68.77-29.76,108.56c-2.47,0.11-4.04,0.25-5.61,0.25c-30.74,0.01-61.47,0.02-92.21,0
		c-9.51,0-12.7-2.99-12.43-12.48c0.38-13.57-0.4-27.42,2.02-40.66c7.61-41.63,47.08-72.27,89.3-70.66
		C111.14,260.03,127.08,264.85,141.03,274.29z"/>
	<path d="M309.2,151.25c0.11,32.49-26.82,58.92-60.19,59.07c-33.33,0.15-60.58-26.13-60.71-58.53
		c-0.13-32.58,26.76-59.21,59.93-59.36C281.86,92.28,309.09,118.55,309.2,151.25z"/>
	<path d="M455.66,186.25c0.07,25.69-21.02,46.36-47.34,46.41c-26.26,0.04-47.59-20.61-47.69-46.18
		c-0.1-25.47,21.28-46.39,47.47-46.43C434.42,140.01,455.59,160.58,455.66,186.25z"/>
	<path d="M90.76,236.73c-26.36-0.12-47.39-20.78-47.29-46.46c0.1-25.59,21.43-46.3,47.62-46.23c26.11,0.08,47.55,21.14,47.4,46.55
		C138.34,216.19,116.96,236.85,90.76,236.73z"/>
</g>
</svg>
